<?xml version="1.0" encoding="utf-8"?>
<!-- Generator: Adobe Illustrator 19.2.1, SVG Export Plug-In . SVG Version: 6.00 Build 0)  -->
<svg version="1.1" id="Capa_1" xmlns="http://www.w3.org/2000/svg" xmlns:xlink="http://www.w3.org/1999/xlink" x="0px" y="0px"
	 viewBox="0 0 485 213" style="enable-background:new 0 0 485 213;" xml:space="preserve">
<style type="text/css">
	.st0{fill:#1D1D1B;}
	.st1{clip-path:url(#SVGID_2_);fill:#813466;}
	.st2{clip-path:url(#SVGID_2_);fill:#1D1D1B;}
</style>
<polygon class="st0" points="39.3,12.1 39.5,12.1 39.4,12 "/>
<g>
	<defs>
		<rect id="SVGID_1_" x="7.1" y="5.3" width="467.9" height="202.7"/>
	</defs>
	<clipPath id="SVGID_2_">
		<use xlink:href="#SVGID_1_"  style="overflow:visible;"/>
	</clipPath>
	<path class="st1" d="M438.4,143.5c-4.2,5.5-8.9,10.4-14.4,14.7c-1.5,1-2.8,1.7-4.3,2.2c-0.7-0.5-0.7-1-0.5-1.5
		c1-5.7,3.8-10.2,8.4-13.7c2-1.7,4-3.7,6.3-5.2c1.8-1.3,3.5-1.5,5.5-0.5c0.3,0.2,0.8,0.5,1.5,1C439.9,141.7,439.2,142.7,438.4,143.5
		 M473.1,148.2c-0.7-0.2-11,11.2-17.2,14.7c-1.5,0.3-2,0-2-0.7c-0.2-0.5,0.5-3,0.8-4.8c0.2-0.5,0.5-1.2,0.5-1.7
		c0.2-0.8,1.7-3.8,1.5-4c-0.5-0.5-2.3,3.5-2.3,3.5s0,0.2-0.2,0.7c-0.3,0.8-0.5,1.8-0.8,2.8c-0.5,1.7-1,3.7-1.7,5.5
		c-1.3,0.2,0.7-7.3,2-11.4c1.5-4.2,3-8.3,4.5-12.9c1.2-3.5,2-7,2.7-10.5c0.3-0.3-0.2-0.5-0.5-1c-0.7,1.7-1.2,3.2-2,5
		c-0.5-0.8-1-1.5-1.5-2c-2-2.5-4.7-3.8-8-2.5c-0.2,0.2-0.5,0.2-1,0.5c-0.5,1.2-1,2.7-1.5,4c-0.5,1.5-1.2,3-3,3.5
		c-2.2-4-11.7-4.8-13.2-4.8c-1.5,0-2-0.2-2-0.2c-0.2-0.3,0-0.5,0.3-0.5c0.7-0.5,4.8,0.5,4.8,0c0.3-0.5-2.8-1.5-2.8-1.5
		c-3.5,0-6.3,0-9.4-0.3c-1,0-2,0.3-2.5,1.5c1.5-0.5,2.8-0.7,4.3-0.2c0,1.5-0.8,2.2-2,3h-0.5c-0.3,0-0.5,0-0.5-0.5s2-1.5,1-1.8
		c-1-0.2-4,2.8-4.3,3c-0.5,0.3-1,0.5-1,0.3c0,0,2-2.3,1.3-2c-0.8,0.5-3,3.2-3,3.2c-2.5,2.8-4.3,6-5.3,9.9c-1.2,4.7-0.5,9.2-0.7,13.9
		c0,1.5,0.7,3,2,4c2.7,1.8,5,4.3,8.5,5.3c1.7,0.5,3.5,0.7,5.2,0.2c3-0.5,6-1.5,8.5-3.7c0.7-0.5,1.5-0.8,2.5-1.3l5.2-3.5
		c0,0,0,8,2.5,11c2.3,2.8,8.9,3.3,13.4,1c4.5-2.2,17.2-19.2,18.7-20.9S474,148.2,473.1,148.2 M392.1,133.2c1.2,0.5,1.3,1.5,1.2,2.5
		c-0.3,0.5-0.5,1.3-0.8,1.5c-2.2,3-4.7,5.5-8.7,7.5C385.3,139.5,388.1,135.7,392.1,133.2 M409.8,148.2c-0.3-1-4.3,1.5-4.3,1.5h-0.2
		c-4.3,4-8.9,7.2-13.7,10.5c-3.3,2.2-6.8,4-10,5.7c-1.8,1-3.5,1.8-6,1.8c0-0.8-0.3-1.8,0-2.5c0.7-3,1.7-5.8,2.5-8.9
		c1.2-4.5,1.2-5.2,6.7-5c2.8,0,5.5-0.8,8-2.2c3.2-2,6-4.5,8.5-7.2c1.5-1.5,2.2-3.3,3-5.3c0.7-2.2,1-4.5-1.8-6
		c-0.5-0.5-0.7-1.2-1.5-1.7c-0.7-0.5-1.5-1.3-2.5-1.5c-2-1-4.5-1.3-6.7-0.8c-4.2,0.8-8.7,1.8-12.5,4.3c-1,0.7-2-0.3-3.2,0.5
		c-2.3,3-4.5,6.2-6.8,9.5c-2.2,3.5-3.2,7.2-5.5,11.7c-0.2-2.7,0.8-4.5,1.3-6c0.7-2,1.5-3.7,2.2-5.7c-2.5,3-4,6.5-5,9.9
		c-0.5,1.8-0.7,3.3,0,4.8c0.5,1,0.5,1.7,0,2.5c-0.7,2.2-0.7,4.5-0.2,6.7c0,1,0.2,2.3,1,3c2,2.3,4.5,4,7,5.8c0.7,0.2,1.7,0.7,2.5,1
		c4.2,0.2,8.5,0.5,12.5-1.3c4.7-2,8.7-5,11.7-9c1.5-1.5,2.7-3.2,4-4.5c1.7-1.7,3.2-3,4.7-4.5C408.5,152.7,410.3,149.2,409.8,148.2
		 M320.3,162.2c0.2-2.8,0.5-5.3,0.2-9.4c-1,4.2-2.5,7-1.2,10.4C319.5,162.7,320.3,162.4,320.3,162.2 M363.4,135.4
		c-0.7-0.5-0.8-0.8-1.3-1.2c-1.3-1.3-2.8-2.5-4.8-2.5c-2.8-0.2-6-0.3-8.9,1c-0.8,0.2-2,0.3-2.8,0.8c-0.2-0.7-0.3-0.7-0.3-0.7
		c-0.5-1.5-0.8-3.2-2-3.7c-1.7-0.8-3-1.5-5-1c-0.8,0.2-2,0-3.3,0c-1.2,1.2-2.8,2-3.3,3.2c-2.2,4-4.3,7.8-5.8,11.7
		c-1.7,3.8-2.8,8-4.3,12.2c0.7,0.7,1,0.8,1.5,1.2c-0.8,4.3-1.8,8.7-2.5,13.2c-0.3,0.8-0.3,1.3,0,2.5c0.5,1.2,1,3.3,2.2,4.5
		c2.7,3.2,4.2,3.7,8.2,2.2c0.5-0.2,1-0.5,1.2-1c0.8-2.2,0.8-3.8,1.2-5.7c1.2-5.5,2.8-10.5,4.2-15.2c0.8-3.8,2.7-7,5.3-9.4
		c1.3-1.3,3-2.8,4.8-4.5c2.7-1.8,5.2-4.5,8.7-4.7c1.2-0.3,2.5-0.3,3.5-0.3c1-0.3,2-0.3,2.7-0.5C363.4,137.5,363.9,136.2,363.4,135.4
		 M306.3,155.4c-2.2,2.8-5.2,4.8-8.4,6.8c-1.2,1-2.5,1.5-3.8,2.3c-0.7,0.5-1.7,0.7-2.7,1.3c-1.8-3.7-0.5-6.8,0.3-9.9
		c0.5-2.2,0.7-4.7,3-6.5c1.8,0.5,3.3,1.8,5.5,2.5c2.2,0.8,4.2,1,6,1.8C307,154.2,306.5,154.9,306.3,155.4 M304.5,127.5
		c1.5-1,3-1,4.2,0.3c1.7,1.3,2.5,2.7,3,4.8c0,1,0.5,2.2,0.3,3.2c-0.8,3.3,0,7-1.5,10.5c-0.5,1.3-1.5,2-2.8,2
		c-2.2-0.2-4.2-0.5-4.2-0.5c-1-0.5-2.3-1.3-3.3-2.2c-1.7-1-2-1.5-2-3.5c0.3-1.7,0.7-3.3,0-5.3C298.4,132.8,300.6,129.7,304.5,127.5
		 M281.7,139.2h0.2H281.7z M323.2,149.7c-1.8,0.2-4,0.2-6.7,0l1.5-3.3c0.2-4.8,0.5-8.9,0-13.4c-0.5-3.5-2.2-6.7-6.2-8.4
		c-0.8-0.2-1.3-0.5-1.5-0.7c-1.8-1.7-4-1.7-6.2-0.8c-3,0.8-6,1.8-8.7,2.3c-1.8,3-3.5,5.7-5,8.5c-1.5-1,0.5-2.3-0.2-3.2
		c-1.3,1.2-2.7,2.8-3.5,4c-0.3,0.3-0.3,0.3-0.5,0.5c0-0.2-0.2-0.5-0.5-0.7c-0.3-1,1-3.3,1.3-4c0.3-0.8,2.5-4.5,0.5-2.2
		c-1.8,2.2-5.3,9.2-6.2,10.5v-0.2c0.3-2.7,2.7-4.3,3.2-7.2c-0.3,0-0.5,0.3-0.5,0.3c-2.7,3.2-4.3,6.3-5,9.5c-0.8,3-1.3,5.2-2.2,8
		c-0.3,2.2-0.5,4.5-1,6.8c-0.3,1.5,0.2,2.7,1,4c0.8,0.7,1.3,1.7,1.7,2.3c0.7,2,2.3,3.8,3.8,5.2c1.3,1,2,1.8,3,2.7
		c1.7,0.3,3.2,1.2,4.5,1.7c0.8,0.2,1.8,0.5,2.8,0.2c2.7-0.2,5.3-1.2,8.2-2.7c2.2-1.5,4.7-3.2,6.7-5c2.2-1.8,4-4,5.2-6.5
		c0.5-1.3,1.2-2.8,2-4.2c4.7,0,8.9-2.7,9.7-3.5C325.5,149.5,323.2,149.7,323.2,149.7 M168,119.7c-0.3,0-0.3,0-0.3,0.5
		C167.7,119.7,168,119.7,168,119.7 M168.5,115.5c-0.5,1.3-0.5,2.8-0.5,4.2c0.5-1.3,0.8-2.8,1.3-4.2H168.5z M247.8,77.6
		c0.8-1.2,1.8-1.8,2.8-2.8v2.8c2.7-2.8,4.8-5.5,7.3-8.5c-1.2-1-1.8,0-2.5,0.7c-1.5,1.7-2.8,3-4.5,4.7c-0.7-0.8-1.3-0.3-2,0
		c-2,1.7-4,3.5-4.3,6.2C245.3,79.6,246.7,78.6,247.8,77.6 M162.7,139.2c-1.7,5-1.7,9.4-1.7,14.4
		C161.8,148.5,165.5,144.5,162.7,139.2 M233.1,110c-0.3-0.3-0.7-0.3-1-0.8c1.7-3.8,3.8-7.2,5.3-10.7c0.3,0.3,0.7,0.3,0.7,0.3
		C236.7,102.3,235.3,106.1,233.1,110 M180.7,92.4h1c-0.3,0.7,0,1-0.3,1.3c-1.5,4.7-3.3,9-5,13C177,101.6,178.7,97.4,180.7,92.4
		 M279.9,77.6c-0.3-4.8-2.8-7.3-8-8.5c-4.8-1-9,0.3-12.4,4.2c-5.8,5.8-10.9,12.4-16.5,18.2c-0.8,0.7-1.5,1.3-1.8,2
		c-0.3,0-0.3-0.3-0.3-0.3c1.3-3,3.2-6.2,4.5-9.2c2-2,3.7-4,5-6c-2.5,1.2-3.7,3.7-5,6c-1.7,2.7-3.8,4.8-5.3,7.8
		c-3.3,5.7-6.5,11.5-9.4,16.9c-0.3,1-0.7,1.3-1,1.7c0.3-1.2,0.3-2.8,1-4.2c1.2-3.3,2.5-6.2,4.3-9.4c-0.5,0-1.2,0.7-1.5,1
		c-3.2,5.5-6.2,11.4-7.8,17.7c0,0.3,0.3,0.7,0.7,1.3c1-2.2,2.3-4.3,3-6.2c0,3.7-0.3,7-3,9.9c-1.5,1.8-2.5,4.5-3.2,6.8
		c-1,1.8-2.2,3.5-4.7,4.3c1.8-7.3,3.7-14.9,5.3-22c-4.2-2.5-8.3-3.5-12.5-3.2c-2,0-4,0.7-5.3,2.2c-2.3,3.5-5.2,6.5-7,9.7
		c-7.2,11.2-13,22.7-18.2,34.6c-2,4.3-4.3,7.7-7.3,12.5c0-1.7,0-2.7,0.3-3.5c1.8-6.2,3.3-12.4,5.5-18.7c3.8-10,7.8-20.4,12.2-30.4
		c4.5-9.5,9.4-19,13-28.9c1.5-4.3,0.8-6.7-3.7-8.9c-0.3-0.3-0.7-0.7-1.3-0.7c-6.5-2-8.3-2.3-10.9,3.2c-0.7,1.5-1.2,3.3-1.8,4.8
		c-1.2,2.2-2.3,4.5-3.7,7h-1.3c0-1,0.7-2.2,0.7-3.2c-1.3-0.7-2.5-0.3-3.2,0.7c-1.5,3.2-1.2,7.3-4,10.5c-0.3,0.3,0,1,0,1.7
		c0,1.2,0.3,1.8,0,2.5c-1.8,7.5-3.3,15.2-5.5,22.7c-0.8,2.5-2,4.8-2.8,7.3c-0.3,0-0.7-0.5-0.7-0.5c0.3-3.5,1-7.2,1.5-11
		c-0.5,0.8-1.2,1.2-1.2,1.8c-0.7,4.5-1.7,8.9-2.2,13.4c0,1.2,0.5,3,1.2,3.8c1,1.2,1,2.2,0.7,3.2c-0.3,1.2-0.3,2.7-0.7,4.2
		c-1.2,6.3-2.2,12.9-2.8,19.5c-0.5,3.2-0.5,6,0,9.2c0,3.5,2.2,6.2,5.3,6.8c3.8,1,5.3,0.7,8.4-3c0.7-1,1.3-2.2,2-3.2
		c4.7-9,8.7-17.5,13-26.1c1.8-4.2,4.2-7.8,8-11.9c-0.5,2.7-0.8,4-0.8,5.5c-0.8,5.7,3.2,10,9,10.7c4.7,0.8,7.8-1.7,10.5-4.3
		c5.3-4.8,9.9-10.4,13.4-16.7c6.7-10.9,12.9-21.4,19.2-32.2c3.3-6,7-11.2,12.7-16.7c-0.8,3.3-0.8,5.8-1.5,8.2
		c-2.7,10.9-5.7,21.4-8.5,32.2c-2.3,7.7-4.7,14.9-6.7,22.5c-2,8.2-3,16.9-4.5,25.2c-1,7.7-0.3,16,0,23.7c0,4.3,3.2,7.8,6,11.5
		c0,0,0.8,0,1.2,0.3c0.3-0.7,1-1.5,1-1.8c1.2-3,1.8-6.3,2.3-9.4c0.7-2.5,0.7-5.2,1.3-7.2c2.2-7.8,4.5-15.5,6.3-23
		c3.3-11.5,6.7-23.4,9.9-35.4c4.7-15.4,8.3-31.7,9.7-48.1C280.4,81.2,280.4,79.6,279.9,77.6"/>
	<path class="st2" d="M449.9,101.4l2.3-16.5h0.1l2.3,16.5H449.9z M443.5,112.5h4.9l1-6.5h6v-0.1l1,6.6h5.2L456,79.1h-7.1
		L443.5,112.5z M430.9,107.7V83.9h2.7c0.9,0,1.5,0.3,2,0.8c0.5,0.5,0.7,1.3,0.7,2.5v17.4c0,1.1-0.2,2-0.7,2.5
		c-0.5,0.5-1.1,0.8-2,0.8H430.9z M425.6,112.5h8c2.6,0,4.6-0.7,5.9-2.1c1.3-1.4,2-3.4,2-6.2V87.4c0-2.7-0.7-4.8-2-6.1
		c-1.3-1.4-3.3-2.1-5.9-2.1h-8V112.5z M416.5,112.5h5.2V79.1h-5.2V112.5z M405.3,113c2.5,0,4.5-0.7,5.8-2.2c1.3-1.4,2-3.5,2-6.2
		V93.7h-7.6v4.8h2.6v6.5c0,2.2-0.9,3.2-2.7,3.2c-1.8,0-2.7-1.1-2.7-3.2V86.7c0-2.2,0.9-3.3,2.7-3.3c1.8,0,2.7,1.1,2.7,3.3v3.2h5V87
		c0-2.7-0.7-4.8-2-6.2c-1.3-1.4-3.3-2.2-5.8-2.2c-2.5,0-4.5,0.7-5.8,2.2c-1.3,1.4-2,3.5-2,6.2v17.5c0,2.7,0.7,4.8,2,6.2
		C400.8,112.2,402.7,113,405.3,113 M383.9,101.4l2.3-16.5h0.1l2.3,16.5H383.9z M377.4,112.5h4.9l1-6.5h6v-0.1l1,6.6h5.2L390,79.1
		h-7.1L377.4,112.5z M359.1,112.5h5.2v-10.6l2.1-4.2l4.4,14.9h5.5L370,91.4l6.2-12.2H371l-6.7,14.1V79.1h-5.2V112.5z M349.9,112.5
		h5.2V79.1h-5.2V112.5z M339,113c2.6,0,4.5-0.7,5.9-2.2c1.4-1.5,2-3.6,2-6.3c0-2.1-0.4-3.9-1.2-5.5c-0.8-1.6-2.3-3.3-4.5-5.2
		c-1.7-1.5-2.9-2.8-3.6-3.8c-0.7-1-1-2.2-1-3.4c0-2.1,0.9-3.2,2.6-3.2c0.9,0,1.5,0.3,2,0.8c0.4,0.5,0.7,1.4,0.7,2.5v1.7h5V87
		c0-2.7-0.6-4.8-1.9-6.2c-1.3-1.4-3.2-2.2-5.7-2.2c-2.5,0-4.5,0.7-5.8,2.2c-1.3,1.4-2,3.5-2,6.1c0,1.9,0.4,3.7,1.3,5.2
		s2.4,3.3,4.5,5.2c1.7,1.5,2.9,2.8,3.5,3.8c0.6,1.1,1,2.3,1,3.7c0,1.2-0.2,2-0.7,2.6c-0.5,0.5-1.1,0.8-2,0.8c-1.8,0-2.7-1.1-2.7-3.2
		v-2.3h-5v1.9c0,2.7,0.7,4.8,2,6.2C334.6,112.2,336.5,113,339,113 M320.7,113c2.5,0,4.5-0.7,5.8-2.2c1.3-1.4,2-3.5,2-6.2V79.1h-5.1
		V105c0,1.1-0.2,2-0.7,2.5c-0.5,0.5-1.1,0.8-2,0.8s-1.5-0.3-2-0.8c-0.5-0.5-0.7-1.3-0.7-2.5V79.1h-5.2v25.5c0,2.7,0.7,4.8,2,6.2
		C316.2,112.2,318.1,113,320.7,113 M287.4,112.5h4.6V87.2h0.1l3.8,25.3h4.4l3.8-25.3h0.1v25.3h5V79.1h-7.5l-3.3,23.9h-0.1l-3.3-23.9
		h-7.5V112.5z"/>
	<path class="st2" d="M145.3,110.7c0.6,1.2,1.2,2.4,1.8,3.6c0.3,0.6,0.6,0.7,1.2,0.5c0.5-0.2,1-0.4,1.5-0.5c1-0.3,1.7-1,2.4-1.7
		c0.8-1,1.7-2,2.4-3.1c1.1-1.7,1.4-3.5,0.8-5.5c-0.2-0.8-0.3-1.7-0.5-2.5c-0.1-0.2-0.1-0.5-0.2-0.8c-0.3,0.1-0.6,0.1-0.8,0.2
		c-0.9,0.6-1.9,1-2.8,1.5c-0.7,0.3-1.4,0.5-2.1,0.9c-1.1,0.5-2.2,1-3.3,1.4c-0.4,0.1-0.8,0.4-1.2,0.6c-0.3,0.2-0.6,0.4-0.7,0.9
		c0.1,0.1,0.2,0.3,0.3,0.5c0.1,0.2,0.2,0.5,0.2,0.8c-0.1,1,0.2,1.9,0.8,2.7C145.1,110.3,145.2,110.5,145.3,110.7 M96.5,149.2
		c-0.3,0.7-0.7,1.4-1,2.2c0.4,0.2,0.7,0.4,1,0.5c0.6,0.1,1,0.3,1.5,0.6c1.2,0.7,2.4,1.4,3.3,2.5c0.2,0.2,0.4,0.4,0.6,0.5
		c1.5,1,2.9,2.1,3.7,3.7c0,0.1,0.1,0.2,0.2,0.2c0.9,1,1.5,2.2,2.2,3.4c0.7,1.2,1.2,2.5,1.9,3.7c0.9,1.6,1.6,3.4,2.4,5.1
		c0.6,1.3,1.2,2.6,1.6,4c0.6,1.9,1.4,3.7,2,5.6c0.6,2,1.5,4,2,6.1c0,0.2,0.1,0.3,0.2,0.5c0.4,1.2,0.7,2.4,1.1,3.6
		c0.5,1.3,0.9,2.7,1.7,3.9c0.7,0.9,1.1,2,1.9,2.9c0.1,0.1,0.1,0.2,0.2,0.4c0.4,1,1,1.9,1.7,2.7c0.5,0.6,1,1.2,1.5,1.9
		c0.9,1.2,2.3,1.7,3.7,2c1,0.2,2.4,0.7,3.5,1.2c0.2,0.1,0.6,0.1,0.8,0.1c0.6-0.6,1-1.1,1.6-1.7c0.4-1.2,0.4-2.5,0.4-3.7
		c0-0.6,0-1.2,0-1.7c-0.1-1.5,0.3-3.1-0.3-4.6c-0.1-0.2,0-0.4,0-0.5c0-0.9,0-1.9,0-2.8c0-1.2,0.1-2.5-0.2-3.7c-0.1-0.3,0-0.7,0-1.1
		c0-0.3,0-0.7,0-1c0.2,1.3,0.5,2.6,0.7,4c1.5-0.3,1.2-1.4,1.1-2.3c-0.3-2.2-0.5-4.1-0.7-6.5c1.1,0,1.1-0.8,1.3-1.5
		c0-2.6-0.1-5.3-1.9-7.3c0.3,1.2,0.2,2.8,0.3,4.4c0.4,1.4,0.2,2.6,0.3,4c-0.5-0.4-1.1-0.9-1.9-1.6c-0.1-0.4-0.2-0.9-0.2-1.3
		c0.4-2.3-0.5-4.6-1.4-6.8c-0.4-1.6-0.8-3.2-1.3-4.8c-0.4-1.5-0.8-3.1-1.4-4.6c-0.1-0.7-0.2-1.3-0.3-2c-0.2-1.1-0.5-2.1-1-3
		c-1-1.9-1.7-3.9-2.5-5.9c-0.5-1.4-1.2-2.6-1.8-3.9c-0.4-1.1-0.9-2.2-1.3-3.3c-0.6-0.9-0.6-1.4-0.6-1.8c0.7,1,2,2.1,2.6,3.5
		c1.8,3,3.1,5.9,4.4,9.3c0.3-0.4,0.2-1.3,0.2-1.8c-2.2-6-6.5-12.3-10.3-17.7c-0.3-0.2-4.7-4.1-5.4-4.3c1,2.2,7.5,8.8,8.5,10.5
		c-0.7-0.5-1.2-0.6-1.7-0.6c0,0,0,0,0-0.1c-1-1.7-2.4-3-3.6-4.5c-0.6-0.8-1.3-1.5-2-2.2c-0.3-0.3-0.6-0.7-0.9-0.9
		c-1.6-1.3-3.2-2.6-4.8-3.8c-0.7-0.5-1.4-1.1-2.1-1.3c-0.7-0.2-1.3-0.4-2-0.7c-0.5-0.2-0.9-0.2-1.4,0.1c-0.6,0.4-1.2,0.7-1.9,0.9
		c-0.7,0.2-1.2,0.8-1.3,1.6c-0.1,1-0.1,2,0,2.9c0.1,0.6,0.1,1.2,0.1,1.7c0,0.4-0.1,0.9-0.1,1.3c0,1.7-0.4,3.4-0.8,5
		c-0.3,1.2-0.8,2.5-1.2,3.7c-0.2,0.5-0.3,1-0.5,1.5C97.8,146.6,97.1,147.9,96.5,149.2 M24.9,164.1c-0.6,1-1.3,1.9-1.8,3
		c-0.6,1.1-0.9,2.3-1.5,3.5c-0.3,0.7-0.7,1.4-1.1,2.1c-0.3,0.6-0.8,1.1-1.1,1.7c-0.6,1.2-1.2,2.4-1.8,3.6c-0.2,0.3-0.3,0.7-0.5,0.9
		c-0.5,0.4-0.7,1-0.9,1.6c-0.1,0.3-0.2,0.6-0.4,0.8c-1.1,1.7-1.6,3.7-2.7,5.4c-0.2,0.4-0.2,0.9-0.4,1.2c-0.4,0.7-0.5,1.4-0.8,2.1
		c-0.1,0.3-0.2,0.6-0.3,0.9c-0.5,0.9-0.9,1.9-1.2,3c-0.1,0.2-0.1,0.5-0.2,0.6c-0.8,1.2-1.2,2.6-1.5,3.9c-0.1,0.3-0.2,0.7-0.4,1
		c-0.1,0.3-0.3,0.6-0.3,0.9c-0.2,1-0.4,2-0.6,3c-0.1,0.5,0,0.9,0.3,1.2c0.1,0.2,0.3,0.3,0.4,0.5c0.5,0.6,1.1,0.9,1.9,0.6
		c0.2-0.1,0.5-0.1,0.8-0.1c1.2-0.1,2.3-0.2,3.5-0.2c1.5,0,3-0.1,4.4-0.8c1-0.5,2.1-0.8,3.1-1.3c0.7-0.4,1.4-0.9,1.9-1.4
		c0.6-0.6,1.2-1.3,1.7-2.1c0.9-1.3,1.9-2.6,3.1-3.7c0.7-0.7,1.3-1.5,1.8-2.3c1.7-2.7,3.5-5.3,5.4-7.8c1.5-2.1,3.2-4.2,4.7-6.3
		c0.3-0.4,0.7-0.7,1-1.1c0.1-0.1,0.3-0.3,0.3-0.4c0.3-1.1,1.1-1.9,1.6-2.9c0.4-0.7,0.9-1.3,1.5-1.9c1.1-1.3,1.9-2.8,2.8-4.2
		c0.1-0.2,0.2-0.4,0.2-0.6c0-0.6,0.3-1.1,0.8-1.6c-0.3-0.2-0.5-0.4-0.7-0.5c-1.9-0.9-3.9-1.9-5.8-2.8c-0.3-0.1-0.6-0.3-0.8-0.5
		c-2-1.4-4-2.7-5.7-4.5c-1-1.1-2.1-2.1-3.2-3.1c-0.5,0.4-1,0.4-1.6,0.1c-0.2-0.1-0.5-0.1-0.9-0.2c-0.1,0.3-0.2,0.5-0.3,0.8
		c-0.1,0.2,0,0.5-0.1,0.6c-0.4,0.7-0.8,1.3-1.2,1.9c-0.8,1.2-1.4,2.5-2.1,3.8C25.5,163.1,25.2,163.6,24.9,164.1 M31.6,5.4
		c-0.3,0-0.7-0.3-0.9,0.1c0,0,0,0.1,0,0.1C31.1,5.9,31.3,5.7,31.6,5.4 M41.4,13l0.1,0l0-0.1L41.4,13z M38.6,51.2
		c0.5,1.3,1.5,2.5,2.4,3.5c-0.5-1.3-1.2-2.7-1.7-4C38.9,51,38.9,51,38.6,51.2 M41,55.3c-0.3-0.4-0.1-0.6-0.1-0.6
		C40.7,54.9,40.7,54.9,41,55.3 M42.2,46.9l-1.9-4.4c0.1,0.2,0.3,0.4,0.4,0.5c0.3,0.3,0.5,0.7,0.6,1.1C41.4,45.1,42,45.9,42.2,46.9
		 M37.5,35.4c-0.4-1.3-0.8-2.8-1.2-4.1c0.1,0.3,0.2,0.7,0.3,1.1C36.9,33.3,37.2,34.3,37.5,35.4 M67,61.8c-1.4-2-3.1-3.8-4.1-6.1
		c-0.1-0.1-0.2-0.2-0.2-0.3c-0.4-0.9-1-1.7-1.2-2.7c-0.2-0.9-0.3-1.8-1-2.6c-0.1-0.1-0.1-0.3-0.2-0.5c-0.6-1.3-1.1-2.6-1.7-3.9
		c-0.5-1.1-1.1-2.2-1.7-3.3c-0.5-0.9-1.1-1.8-1.4-2.7c-0.6-1.4-1.1-2.7-1.8-4c-0.3-0.6-0.6-1.1-0.8-1.7c-0.3-1-0.7-1.9-1.1-2.9
		c-0.1-0.3-0.3-0.6-0.4-1c-0.7-2.2-1.9-4.3-2.8-6.4c-0.6-1.4-1.5-2.6-2.6-3.7c-0.4-0.3-0.6-0.8-0.9-1.2c-0.6-0.8-1.2-1.5-2-2.2
		c-0.2-0.1-0.4-0.3-0.5-0.4c-1.5-1.6-3.5-2.4-5.6-2.8c-0.8-0.2-1.6,0.2-2,1c-0.4,0.7-0.7,1.4-1.2,2.1c-0.5,0.8-0.6,1.6-0.4,2.4
		c0.4,1.6,0.7,3.2,1.1,4.8c0.1,0.4,0.2,0.8,0.2,1.2c0.1,0.8,0.3,1.5,0.5,2.3c0-0.1-0.1-0.2-0.1-0.3l1.7,9.6c0.6,1.3,1.1,2.6,1.2,2.9
		c3.5,6.9,4.1,10.5,7.4,17.6c1,2.4,1.7,5,2.7,7.4c-0.3,0.2-0.8,0.1-0.8,0.1c-2-2.9-4-6.1-6.1-9.3c0.2,1-0.1,1.6,0.3,2.2
		c2.5,3.8,4.5,7.8,7.1,11.5c0.7,0.8,2,1.7,3,2c0.2,0.4,0.3,0.9,0.4,1.3c0.1,0.8,0.3,1.6,0.6,2.3c-0.7-0.6-1.6-1.2-2.7-1.6
		c2,4.9,4.9,8.2,8.2,11.9c-0.6-1-1.1-2.1-1.5-3.3c1.1,0,2.2-0.1,3.3-0.1c1,0,2,0,2.9,0.2c3.6,0.7,7.1,1.9,10.5,3.1
		c0.5,0.2,1,0.4,1.5,0.6c1.5,0.4,2.9,1.2,4.2,2.1c0.5,0.4,1.1,0.8,1.5,1.3c0.4,0.6,1,1.1,1.6,1.4c1.1,0.7,1.9,1.6,2.8,2.5
		c0.7,0.7,1.4,1.3,2.1,1.9c0.1,0.1,0.3,0.2,0.5,0.2c0.4-0.1,0.6,0.1,0.9,0.3c1,0.7,2.2,1.1,3.2,1.6c0.9,0.4,1.7,0.4,2.6,0.1
		c0.8-0.3,1.6-0.7,2.5-1c0.7-0.2,1.2-0.6,1.7-1.1c0.4-0.3,0.7-0.7,1.1-0.9c0.9-0.4,1.4-1.2,2-1.9c0.6-0.8,1.2-1.5,1.9-2.3
		c0-0.3,0-0.7,0-1.1c0-1,0.1-2-0.2-3.1c-0.6-1.8-1.5-3.2-2.9-4.5c-0.2-0.2-0.4-0.4-0.5-0.6c-0.2-0.7-0.8-1.1-1.4-1.3
		c-0.6-0.2-1.2-0.6-1.6-1.1c-0.6-0.7-1.3-1-2.2-1.3c-0.9-0.3-1.9-0.6-2.8-0.8c-0.4-0.1-0.8-0.1-1.2-0.2c-1-0.2-1.9-0.3-2.9-0.5
		c-1-0.2-2-0.5-3-0.6c-1.2-0.1-2.3-0.4-3.4-0.9c-1.5-0.6-2.9-1.4-4.3-2.2c-0.9-0.5-1.8-1.2-2.6-1.9c-1.5-1.3-2.8-2.9-4.4-4.1
		c-0.3-0.2-0.5-0.5-0.7-0.8C68.2,63.5,67.6,62.7,67,61.8 M141.8,38.6c0-0.4,0-0.8,0-1.2c-0.8-0.3-1.6-0.4-2.3,0.2
		c-0.3,0.2-0.6,0.4-0.8,0.6c-0.9,0.8-1.7,1.7-2.7,2.5c-1.1,0.9-2.1,1.8-3,2.9c-0.2,0.2-0.4,0.3-0.7,0.4c-0.8,0.1-1.7,0.2-2.5,0.2
		c-0.7,0-1.4,0.1-2.1,0.4c-1.2,0.5-2.5,0.8-3.8,0.8c-1.5,0.1-3,0.3-4.5-0.1c-0.2-0.1-0.5,0-0.8,0c-1.2,0-2.4-0.2-3.6-0.6
		c-0.2-0.1-0.3-0.1-0.5-0.2c-0.6-0.6-1.2-1.1-1.6-1.8c-0.1-0.2-0.1-0.5-0.2-0.7c0.4,0,0.6-0.1,0.9-0.1c1.6,0.1,3.1,0.1,4.7,0.2
		c0.3,0,0.6,0,0.8,0.1c0.7,0.2,1.3,0.1,2,0.1c0.8,0,1.5-0.1,2.3-0.1c0.9,0,1.7,0,2.4-0.5c0.3-0.2,0.8-0.3,1.1-0.4
		c0.5-0.2,1-0.5,1.4-0.7c0.6-0.4,1.3-0.8,1.9-1.2c0.1-0.1,0.3-0.2,0.4-0.3c0.8-0.9,1.6-1.7,2-2.8c0.1-0.1,0-0.3,0.1-0.6
		c-0.4,0.2-0.7,0.3-0.9,0.5c-0.8,0.4-1.5,0.8-2.4,0.6c-0.3-0.1-0.6,0.1-0.9,0.2c-1,0.4-2,0.6-3.1,0.5c-1.1-0.1-2.2-0.2-3.3-0.6
		c-0.4-0.2-0.9-0.3-1.4-0.4c-0.2,0-0.4-0.1-0.5-0.2c-0.7-0.6-1.5-0.8-2.3-1.1c-0.9-0.3-1.6-0.8-2.2-1.5c-0.7-0.7-1.3-1.5-1.9-2.3
		c-0.3-0.3-0.4-0.7-0.7-1c-0.6-0.8-1.3-1.5-1.9-2.2c-0.5-0.5-0.9-1.1-1.4-1.6c-0.6-0.6-1.1-1.3-1.6-2c-0.2-0.3-0.3-0.6-0.5-0.7
		c-0.9-0.8-1.9-1.5-2.9-2.2c-1.1-0.8-2.4-1.2-3.6-1.9c-0.3-0.2-0.7-0.2-1-0.3c-0.7-0.2-1.5-0.3-2.2-0.7c-1.3-0.8-2.7-0.8-4.2-0.6
		c-0.4,0.1-0.8,0.1-1.2,0.1c-1.8-0.1-3.6,0.3-5.3,0.5c-1.5,0.2-3.1,0.7-4.6,0.9c-1.7,0.2-3.2,1-4.8,1.7c-0.6,0.2-1.1,0.6-1.6,1
		c-1.1,0.9-2,1.9-3.1,2.8c-1.3,1-2.3,2.1-3.1,3.5c-0.8,1.3-1.4,2.7-2.1,4c-0.1,0.2-0.1,0.4-0.2,0.6c-0.1,0.3-0.1,0.5-0.2,0.8
		c-0.6,1.1-0.9,2.3-1,3.6c-0.1,0.7-0.3,1.4-0.4,2.1C65.9,41.9,66,44.5,67,47c0.2,0.5,0.3,0.9,0.4,1.4c0.2,1,0.2,2,1,2.7
		c0.1,0.1,0.1,0.2,0.1,0.3c0.4,0.9,0.8,1.8,1,2.8c0.4,1.2,1.2,2.3,1.1,3.7c0,0.2,0.1,0.3,0.2,0.5c0.2,0.4,0.5,0.7,0.8,1.1
		c0.7,1.1,1.5,1.9,2.6,2.6c0.8,0.5,1.8,0.8,2.3,1.7c0,0,0.1,0,0.1,0.1c1,0.6,2,1.2,3.1,1.6c1,0.4,2,0.9,3,1.4
		c0.8,0.4,1.6,0.8,2.5,1.1c1.5,0.5,3,0.9,4.5,1.2c1.1,0.2,2.1,0.3,3.2,0.3c0.9,0,1.8-0.1,2.7,0.2c0.3,0.1,0.6,0.1,0.9,0.1
		c1.4-0.1,2.8-0.3,4.1-0.4c0.2,0,0.3-0.1,0.5-0.2c1.3-0.4,2.5-0.9,3.7-1.5c2.3-1,4.5-2.3,6.4-3.8c1-0.7,2-1.4,2.6-2.4
		c0-0.1,0.1-0.1,0.2-0.2c0.5-0.4,0.8-0.9,1.1-1.5c0.2-0.4,0.4-0.7,0.6-1.1c0.1-0.2,0.2-0.4,0.2-0.6c-0.4-0.2-0.7-0.3-1.1-0.4
		c-0.4-0.1-0.6-0.5-0.9-0.7c-0.1-0.1-0.2-0.1-0.4-0.2c-1-0.4-2-0.9-3.1-1.2c-1.9-0.5-3.4-1.5-4.9-2.8c-0.3-0.3-0.7-0.6-1.1-0.7
		c-0.7-0.2-1.2-0.6-1.5-1.2c-0.1-0.2-0.3-0.4-0.4-0.5c-1-0.8-1.8-1.9-2.7-2.8C98.9,46,98,44.3,97,42.7c-0.4-0.7-0.8-1.3-1.3-1.8
		c-0.3-0.4-0.7-0.8-1.1-1.2c-0.8-0.8-1.7-1.5-2.9-1.6c-1.3-0.2-2.7-0.3-4-0.2c-0.5,0.1-0.9,0-1.3-0.3c-0.5-0.3-1.2-0.3-1.3-1.1
		c0.1-0.1,0.1-0.3,0.2-0.3c0.7-0.4,1.4-0.9,2.2-1.3c0.9-0.4,1.8-0.5,2.8-0.4c0.7,0.1,1.4,0.1,2.1,0.1c0.6,0,1.1,0.1,1.5,0.4
		c0.7,0.3,1.4,0.8,2.2,1c1.1,0.3,2,0.9,2.8,1.7c0.9,0.9,1.7,1.9,2.4,2.9c0.5,0.6,0.9,1.4,1.2,2.1c0.3,0.6,0.5,1.3,0.9,1.9
		c0.6,1,1.3,2,2.5,2.5c0.6,0.3,1,0.6,1.5,1.1c0.9,0.9,2,1.7,3.3,1.9c1,0.2,2,0.5,2.9,0.9c0.8,0.3,1.7,0.7,2.5,0.8
		c0.8,0.1,1.5,0.3,2.2,0.4c0.7,0.1,1.3,0.2,2,0.3c1.2,0.2,2.3,0,3.4-0.5c0.7-0.3,1.3-0.3,2-0.3c0.4,0,0.7,0.1,1.1,0
		c0.6-0.1,1.2-0.3,1.8-0.5c0.6-0.2,1.3-0.3,1.8-0.8c0.2-0.2,0.6-0.2,0.8-0.3c0.8-0.3,1.6-0.4,2.4-0.9c0.7-0.5,1.4-1,2.3-1.4
		c0.3-0.1,0.5-0.4,0.7-0.6c1.3-1.6,2.6-3.2,3.9-4.8c0.2-0.3,0.5-0.7,0.6-1.1C141.2,40.4,141.6,39.5,141.8,38.6 M92,143
		c-0.3,0.5-0.4,0.9-0.6,1.2c0,0.1-0.2,0.1-0.3,0.1c-0.1,0-0.2-0.1-0.1-0.2c0-0.5,0.2-0.9,0.6-1.1C91.6,142.9,91.7,143,92,143
		 M78.6,126.8c0.1,1,0.1,2,0,3.1c0,0.6-0.3,1.2-0.4,1.8c-0.2,0.8-0.5,1.5-0.7,2.3c-0.6,2.2-1.8,4-3.1,5.7c-0.4,0.6-0.8,1.3-1.6,1.5
		c-0.3,0.1-0.6,0.5-0.9,0.8c-0.3,0.2-0.5,0.6-0.8,0.7c-1.2,0.6-2.4,1.3-3.8,1.6c-0.7,0.1-1.5,0.4-2.2,0.5c-1.1,0.2-2.1,0.2-3.2,0.1
		c-0.4,0-0.8,0-1.3,0.1c-1.3,0-2.6,0-4-0.1c-1.6-0.1-3.1-0.4-4.5-1.1c-0.9-0.4-1.9-0.9-2.8-1.2c-1.2-0.5-2-1.3-2.9-2.2
		c-0.6-0.6-1.2-1.3-1.7-2c-0.2-0.2-0.3-0.5-0.4-0.7c-0.3-0.5-0.6-1.1-1-1.6c-0.7-0.8-1.1-1.8-1.4-2.7c-0.6-1.6-1.1-3.2-1.6-4.8
		c-0.1-0.3-0.2-0.5-0.2-0.8c0-1.7-0.1-3.4,0-5.1c0.1-1.1,0.3-2.1,0.7-3.1c0.4-1.2,1-2.4,1.4-3.6c0.1-0.3,0.2-0.7,0.4-0.8
		c1-0.8,1.3-2.1,2.2-3c0.2-0.2,0.3-0.4,0.5-0.6c0.6-0.9,1.2-1.7,2-2.3c0.6-0.5,1.2-1.1,1.7-1.7c0.6-0.6,1.2-1,2-1.2
		c0.9-0.3,1.8-0.7,2.7-1c0.1,0,0.2-0.1,0.3-0.1c1-0.2,2.1-0.4,3.2-0.5c1.6-0.1,3.1,0,4.7,0c0.3,0,0.6,0,0.9,0.1
		c1.4,0.3,2.9,0.7,4.3,1.1c0.1,0,0.2,0.1,0.3,0.1c1.2,0.1,2.1,0.6,2.9,1.5c0.9,0.9,1.9,1.6,2.9,2.4c0.6,0.4,1,1,1.4,1.6
		c0.3,0.6,0.8,1.2,1.1,1.8c1,1.7,1.7,3.6,2.3,5.6c0.2,0.6,0.5,1.3,0.3,1.9C78.9,122.6,78.4,124.7,78.6,126.8 M58.8,157.8
		c0.1,0,0.1-0.1,0.2-0.1c0,0,0.1,0,0.1,0.1C58.9,157.8,58.9,157.8,58.8,157.8C58.8,157.9,58.8,157.8,58.8,157.8 M159.9,89.8
		c-0.3-1-0.6-2-0.8-3c-0.2-1-0.5-2-1-2.9c-0.4-0.7-0.9-1.3-1.3-2c-0.5-1-1.2-1.9-1.6-2.9c-0.3-0.7-0.9-1.2-1.6-1.6
		c-0.2-0.1-0.5-0.2-0.7-0.3c-0.6-0.4-1.2-0.3-1.8-0.1c-0.3,0.1-0.6,0.3-0.8,0.4c-1.4,0.8-2.7,1.5-4.2,1.9c-0.7,0.2-1.4,0.5-2.1,0.8
		c-1.8,0.9-3.7,1.7-5.6,2.5c-0.7,0.3-1.3,0.6-1.8,1.1c-0.4,0.4-1,0.6-1.5,0.8c-1.5,0.6-2.9,1.2-4.2,2.1c-0.5,0.3-0.8,0.2-1-0.2
		c-0.5-0.7-0.6-1.6-1.2-2.2c0,0,0-0.2,0-0.2c0-0.3,0-0.6-0.2-0.9c-0.8-1.7-1.3-3.4-1.8-5.2c-0.3-1.1-0.9-2.2-0.9-3.3
		c0-0.2-0.1-0.4-0.2-0.5c-0.7-0.8-1-1.9-1.4-2.9c-0.2-0.5-0.6-1-1-1.3c-0.5-0.1-1-0.1-1.4-0.3c-0.8-0.4-1.7-0.5-2.6-0.7
		c-0.1,0.1-0.2,0.3-0.3,0.4c-0.1,0.2-0.2,0.4-0.4,0.5c-0.4,0.5-0.8,0.9-1.6,0.8c-0.2,0-0.4,0.1-0.6,0.2c-1.7,0.8-3.7,1.1-5.4,2.1
		c-1.3,0.3-2.5,0.8-3.6,1.7c-1,0.2-1.4,0.9-2,1.6c0,0,0,0.1-0.1,0.2c0.4,1,0.9,2.1,1.3,3.2h0.8c0.5,0.6-0.3,0.8-0.4,1.2
		c0.1,0.3,0.3,0.6,0.4,0.9c0.4,1,0.9,1.9,1.1,2.9c0.2,0.8,0.6,1.5,0.9,2.2c0.3,0.8,0.4,1.6,0.7,2.3c0.4,1.1,1,2.1,1.5,3.2
		c0.3,0.6,0.5,1.1,0.8,1.7c-0.2,0.3-0.4,0.5-0.6,0.8c-0.3,0.7-0.9,1.1-1.6,1.3c-0.9,0.2-1.6,0.7-2.4,1.1c-0.8,0.4-1.5,0.7-2.3,1.1
		c-1.2,0.6-2.4,1.1-3.6,1.7c-0.9,0.5-1.8,0.9-2.8,1c-0.2,0-0.4,0.1-0.6,0.2c-1.7,0.8-3.3,1.6-5,2.3c-0.2,0.1-0.5,0.2-0.7,0.3
		c-1.1,0.3-2.2,0.7-3.3,1c-0.4,0.1-0.8,0.1-1.2,0.2c-0.4,0.1-0.8-0.1-1-0.5c-0.4-0.6-0.7-1.2-1.1-1.7c-0.6-0.9-1.3-1.7-2-2.5
		c-0.9-0.9-1.9-1.8-2.8-2.6c0.2-0.4,0.2-0.8-0.2-1.1c-0.3-0.2-0.6-0.4-0.9-0.6c-0.7-0.5-1.5-0.9-2.3-1.3c-1.1-0.7-2.2-1.3-3.3-1.7
		c-0.7-0.2-1.4-0.4-1.9-1c-0.1-0.1-0.4-0.2-0.6-0.3c-0.8-0.1-1.5-0.4-2.1-0.8c-0.3-0.2-0.6-0.2-0.9-0.3c-1.3-0.4-2.6-0.7-3.8-1.2
		c-1-0.5-1.9-0.6-2.9-0.8c-0.3-0.1-0.6-0.1-0.9-0.2c-0.8-0.4-1.6-0.3-2.4-0.1c-0.7,0.1-1.4,0.3-2.1,0.2c-1.8-0.1-3.5-0.1-5.1,0.7
		c-0.4,0.2-0.8,0.2-1.2,0.3c-1,0.1-2,0.1-3,0.4c-0.2,0.1-0.5,0-0.8,0c-1-0.1-1.8,0.3-2.6,0.8c-0.8,0.5-1.7,0.9-2.3,1.8
		c0,0.1-0.1,0.1-0.2,0.1c-0.8,0.2-1.5,0.8-2.3,1.2c-1.2,0.6-2,1.5-2.6,2.6c-0.3,0.6-0.7,1-1.2,1.4c-2.1,1.4-3.5,3.5-5,5.6
		c-1,1.4-1.8,3-2.6,4.5c-0.1,0.2-0.1,0.3-0.2,0.5c-0.2,0.6-0.4,1.2-0.7,1.8c-0.2,0.4-0.3,0.7-0.2,1.2c0.1,0.5-0.1,0.9-0.4,1.3
		c-0.2,0.3-0.4,0.6-0.4,1c0,0.7-0.2,1.3-0.5,1.9c-0.1,0.3-0.2,0.6-0.2,0.9c-0.2,1.2-0.4,2.5-0.6,3.7c-0.1,0.4-0.1,0.8-0.1,1.2
		c0,0.8,0,1.7,0,2.5c0,0.8,0,1.7,0.1,2.5c0.3,1.7,0.7,3.3,1.1,5c0.1,0.3,0.2,0.5,0.2,0.8c0.2,1.5,0.7,3,0.7,4.5c0,0.2,0,0.4,0.1,0.5
		c0.6,1.7,1.1,3.4,2,5c0.6,1,1.3,2,1.9,3c0.5,0.9,1.2,1.6,2,2.1c0.3,0.2,0.6,0.5,0.8,0.8c0.7,0.9,1.4,1.8,2.2,2.5
		c1.2,1,2.2,2.1,3.5,2.9c0.2,0.1,0.3,0.3,0.5,0.5c1.9,1.8,3.9,3.4,6.3,4.5c1.6,0.8,3.2,1.6,5,2c0.5,0.1,1,0.4,1.5,0.5
		c1.1,0.4,2.2,0.7,3.4,0.7c2.5,0,5,0.1,7.5,0c0.9,0,1.8,0.1,2.6-0.4c0.1-0.1,0.3-0.1,0.5-0.1c0.9-0.1,1.8-0.4,2.5-0.8
		c0.7-0.4,1.4-0.6,2.2-0.5c1,0.1,1.8-0.2,2.6-0.8c0.6-0.4,1.2-0.7,1.7-1c0.1,0,0.2,0,0.3,0c0.1,0.3,0.2,0.6,0.3,0.8
		c0.2,0,0.3,0,0.5-0.1c1.8-0.8,3.7-1.6,5.5-2.4c1.4-0.6,2.6-1.4,3.6-2.5c1.2-1.4,2.4-2.7,3.7-4.1c0.4-0.4,0.7-0.8,0.9-1.3
		c0.9-2,1.6-4.1,2.4-6.1c0.2-0.5,0.4-1.1,0.4-1.7c-0.1-1.3,0.3-2.4,0.7-3.5c0.3-1,0.5-2,0.8-3c0.3-1.1,0-2.3,0.4-3.4
		c0.2-0.4,0-1-0.1-1.5c0-0.2-0.1-0.3-0.1-0.5c-0.2-1-0.5-2,0-3c-0.2-0.9,0.3-1.3,0.9-1.7c0.3-0.2,0.6-0.4,0.9-0.6
		c1.3-0.8,2.5-1.7,3.9-2.4c1-0.6,2.2-1,3.3-1.5c1.1-0.5,2.2-0.9,3.2-1.7c0.5-0.4,1.2-0.6,1.8-0.9c1.2-0.5,2.5-1,3.7-1.6
		c1-0.5,2-1,3.1-1.4c0.6-0.2,1.2-0.6,1.8-0.9c0.7-0.4,1.4-0.6,2.2-0.4c0.3,0.1,0.6,0.1,1,0.1c0.2,0.5,0.5,1,0.6,1.5
		c0.1,0.6,0.4,1.2,0.7,1.7c0.5,1.1,1.1,2.2,1.6,3.3c0.7,1.4,1.5,2.7,2,4.2c0,0.1,0.1,0.2,0.1,0.2c0.3,0.6,0.7,1.2,1,1.7
		c0.6,0.9,0.9,1.9,1.8,2.7c0.4,0.4,0.9,0.6,1.4,0.6c0.4,0,0.8-0.1,1.2-0.2c0.6-0.2,1.2-0.5,1.9-0.8c2.3-0.9,4.6-2,6.8-3.1
		c0.3-0.2,0.7-0.3,1-0.4c1.2-0.3,2.2-1,3.1-1.8c0.3-0.3,0.7-0.5,1.3-0.9c0.1-0.1,0.2-0.4,0.4-0.7c0.4-0.5,0.4-1,0.2-1.5
		c-0.1-0.3-0.3-0.7-0.5-1c-0.3-0.7-0.7-1.4-1-2c-0.3-0.5-0.5-1-0.8-1.5c-0.2-0.3-0.4-0.7-0.6-1c-0.7-1.1-1.3-2.1-2-3.2
		c-0.2-0.4-0.5-0.8-0.6-1.2c-0.4-0.8-0.7-1.6-1.1-2.3c-0.4-0.7-0.5-1.6-1.2-2.2c-0.1-0.1-0.1-0.2-0.2-0.4c-0.2-0.5-0.1-0.8,0.5-1
		c1.5-0.4,2.9-1.1,4.3-1.8c0.5-0.3,1.2-0.4,1.8-0.6c0.4-0.1,0.9-0.2,1.3-0.4c1.3-0.6,2.6-1.2,3.9-1.8c0.4-0.2,0.8-0.3,1.2-0.5
		c1-0.5,2-0.8,2.9-1.4c1.1-0.7,2.1-1.3,3.3-1.7c0.6-0.2,1.2-0.5,1.9-0.7c0.5-0.2,1-0.5,1.1-1.1C160.1,92.2,160.4,91,159.9,89.8"/>
</g>
</svg>
